<?xml version="1.0" encoding="UTF-8" standalone="no"?>
<!-- Generator: Adobe Illustrator 25.0.0, SVG Export Plug-In . SVG Version: 6.00 Build 0)  -->
<svg xmlns:inkscape="http://www.inkscape.org/namespaces/inkscape" xmlns:sodipodi="http://sodipodi.sourceforge.net/DTD/sodipodi-0.dtd" xmlns:xlink="http://www.w3.org/1999/xlink" xmlns="http://www.w3.org/2000/svg" xmlns:svg="http://www.w3.org/2000/svg" version="1.1" id="Layer_1" x="0px" y="0px" viewBox="0 0 200.35001 40.7" xml:space="preserve" sodipodi:docname="bd655cf617d4c81e848e84d9adcf2056.svg" width="200.35001" height="40.700001"><defs id="defs357"></defs>
<style type="text/css" id="style2">
	.st0{clip-path:url(#SVGID_2_);fill:#F05764;}
	.st1{clip-path:url(#SVGID_4_);fill:#F05764;}
	.st2{clip-path:url(#SVGID_6_);fill:#F05764;}
	.st3{clip-path:url(#SVGID_8_);fill:#F05764;}
	.st4{clip-path:url(#SVGID_10_);fill:#F05764;}
	.st5{clip-path:url(#SVGID_12_);fill:#F05764;}
	.st6{clip-path:url(#SVGID_14_);fill:#F05764;}
	.st7{clip-path:url(#SVGID_16_);fill:#F05764;}
	.st8{clip-path:url(#SVGID_18_);fill:#F05764;}
	.st9{clip-path:url(#SVGID_20_);fill:#F05764;}
	.st10{clip-path:url(#SVGID_22_);fill:#F05764;}
	.st11{clip-path:url(#SVGID_24_);fill:#F05764;}
	.st12{clip-path:url(#SVGID_26_);fill:#F05764;}
	.st13{clip-path:url(#SVGID_28_);fill:#F05764;}
	.st14{clip-path:url(#SVGID_30_);fill:#F05764;}
	.st15{clip-path:url(#SVGID_32_);fill:#F05764;}
	.st16{clip-path:url(#SVGID_34_);fill:#F05764;}
	.st17{clip-path:url(#SVGID_36_);fill:#F05764;}
	.st18{clip-path:url(#SVGID_38_);fill:#F05764;}
	.st19{clip-path:url(#SVGID_40_);fill:#F05764;}
	.st20{clip-path:url(#SVGID_42_);fill:#F05764;}
	.st21{clip-path:url(#SVGID_44_);fill:#F05764;}
	.st22{clip-path:url(#SVGID_46_);fill:#F05764;}
	.st23{clip-path:url(#SVGID_48_);fill:#F05764;}
	.st24{clip-path:url(#SVGID_50_);fill:#F05764;}
	.st25{clip-path:url(#SVGID_52_);fill:#F05764;}
	.st26{clip-path:url(#SVGID_54_);fill:#F05764;}
	.st27{clip-path:url(#SVGID_56_);fill:#F05764;}
	.st28{clip-path:url(#SVGID_58_);fill:#F05764;}
</style>
<g id="g352" transform="translate(-3.97,-5.5)">
	<g id="g14">
		<defs id="defs5">
			<path id="SVGID_1_" d="m 73.14,41.24 c -0.25,0.13 -0.46,0.3 -0.64,0.53 -0.17,0.23 -0.31,0.49 -0.4,0.8 -0.09,0.31 -0.14,0.65 -0.14,1.01 0,0.38 0.05,0.73 0.14,1.04 0.1,0.31 0.23,0.57 0.41,0.79 0.18,0.22 0.4,0.39 0.66,0.51 0.26,0.12 0.56,0.18 0.89,0.18 0.31,0 0.59,-0.04 0.82,-0.11 0.23,-0.07 0.43,-0.17 0.59,-0.28 V 43.4 h -1.42 v 0.41 h 0.85 v 1.64 c -0.1,0.07 -0.21,0.12 -0.36,0.16 -0.14,0.04 -0.3,0.05 -0.48,0.05 -0.25,0 -0.46,-0.05 -0.65,-0.16 -0.19,-0.11 -0.34,-0.25 -0.47,-0.43 -0.13,-0.18 -0.22,-0.4 -0.28,-0.66 -0.06,-0.26 -0.09,-0.53 -0.09,-0.83 0,-0.29 0.03,-0.56 0.09,-0.81 0.06,-0.25 0.15,-0.48 0.27,-0.67 0.12,-0.19 0.27,-0.34 0.45,-0.45 0.18,-0.11 0.39,-0.17 0.64,-0.17 0.2,0 0.38,0.04 0.55,0.12 0.17,0.08 0.32,0.2 0.45,0.36 l 0.38,-0.31 c -0.16,-0.2 -0.36,-0.36 -0.6,-0.45 -0.24,-0.1 -0.51,-0.14 -0.8,-0.14 -0.32,-0.01 -0.6,0.05 -0.86,0.18"></path>
		</defs>
		<use xlink:href="#SVGID_1_" style="overflow:visible;fill:#f05764" id="use7" x="0" y="0" width="100%" height="100%"></use>
		<clipPath id="SVGID_2_">
			<use xlink:href="#SVGID_1_" style="overflow:visible" id="use9" x="0" y="0" width="100%" height="100%"></use>
		</clipPath>
		<polygon class="st0" points="75.93,46.07 71.99,46.3 71.52,41.08 75.47,40.84 " clip-path="url(#SVGID_2_)" id="polygon12"></polygon>
	</g>
	<g id="g26">
		<defs id="defs17">
			<path id="SVGID_3_" d="M 81.25,41.58 H 82 c 0.13,0 0.26,0.01 0.39,0.04 0.13,0.03 0.24,0.07 0.34,0.14 0.1,0.07 0.18,0.16 0.24,0.28 0.06,0.12 0.09,0.26 0.09,0.43 0,0.29 -0.09,0.52 -0.27,0.68 -0.18,0.16 -0.43,0.24 -0.75,0.24 h -0.78 v -1.81 z m -0.58,-0.41 v 4.84 h 0.58 v -2.24 h 0.76 l 1.08,2.24 h 0.63 l -1.16,-2.32 c 0.12,-0.01 0.25,-0.05 0.37,-0.1 0.13,-0.05 0.24,-0.13 0.34,-0.23 0.1,-0.1 0.19,-0.22 0.25,-0.37 0.06,-0.15 0.1,-0.32 0.1,-0.53 0,-0.24 -0.04,-0.44 -0.13,-0.6 -0.09,-0.16 -0.2,-0.3 -0.34,-0.4 -0.14,-0.1 -0.31,-0.17 -0.49,-0.22 -0.18,-0.04 -0.37,-0.06 -0.57,-0.06 h -1.42 z"></path>
		</defs>
		<use xlink:href="#SVGID_3_" style="overflow:visible;fill:#f05764" id="use19" x="0" y="0" width="100%" height="100%"></use>
		<clipPath id="SVGID_4_">
			<use xlink:href="#SVGID_3_" style="overflow:visible" id="use21" x="0" y="0" width="100%" height="100%"></use>
		</clipPath>
		<polygon class="st1" points="84.15,45.98 80.69,46.19 80.24,41.19 83.7,40.99 " clip-path="url(#SVGID_4_)" id="polygon24"></polygon>
	</g>
	<g id="g38">
		<defs id="defs29">
			<path id="SVGID_5_" d="m 89.87,41.6 h 0.03 l 0.81,2.82 H 89.05 Z M 89.51,41.17 88,46.01 h 0.6 l 0.38,-1.21 h 1.83 l 0.36,1.21 h 0.61 l -1.47,-4.84 z"></path>
		</defs>
		<use xlink:href="#SVGID_5_" style="overflow:visible;fill:#f05764" id="use31" x="0" y="0" width="100%" height="100%"></use>
		<clipPath id="SVGID_6_">
			<use xlink:href="#SVGID_5_" style="overflow:visible" id="use33" x="0" y="0" width="100%" height="100%"></use>
		</clipPath>
		<polygon class="st2" points="92.2,45.98 88.01,46.23 87.56,41.19 91.75,40.94 " clip-path="url(#SVGID_6_)" id="polygon36"></polygon>
	</g>
	<g id="g50">
		<defs id="defs41">
			<path id="SVGID_7_" d="m 97.04,41.58 h 0.79 c 0.13,0 0.26,0.02 0.37,0.05 0.11,0.03 0.22,0.09 0.31,0.16 0.09,0.07 0.16,0.17 0.21,0.28 0.05,0.12 0.08,0.25 0.08,0.41 0,0.32 -0.09,0.56 -0.28,0.72 -0.19,0.16 -0.41,0.23 -0.68,0.23 h -0.8 z m -0.58,-0.41 v 4.84 h 0.58 v -2.16 h 0.87 c 0.19,0 0.37,-0.03 0.55,-0.09 0.18,-0.06 0.33,-0.15 0.47,-0.26 0.13,-0.11 0.24,-0.26 0.32,-0.43 0.08,-0.17 0.12,-0.37 0.12,-0.59 0,-0.25 -0.05,-0.46 -0.14,-0.63 -0.09,-0.17 -0.21,-0.3 -0.36,-0.41 -0.15,-0.1 -0.31,-0.17 -0.49,-0.22 -0.18,-0.04 -0.36,-0.06 -0.53,-0.06 h -1.39 z"></path>
		</defs>
		<use xlink:href="#SVGID_7_" style="overflow:visible;fill:#f05764" id="use43" x="0" y="0" width="100%" height="100%"></use>
		<clipPath id="SVGID_8_">
			<use xlink:href="#SVGID_7_" style="overflow:visible" id="use45" x="0" y="0" width="100%" height="100%"></use>
		</clipPath>
		<polygon class="st3" points="99.8,45.98 96.47,46.18 96.03,41.19 99.36,40.99 " clip-path="url(#SVGID_8_)" id="polygon48"></polygon>
	</g>
	<g id="g62">
		<defs id="defs53">
			<polygon id="SVGID_9_" points="104.86,43.28 104.86,41.17 104.27,41.17 104.27,46.01 104.86,46.01 104.86,43.71 107.13,43.71 107.13,46.01 107.72,46.01 107.72,41.17 107.13,41.17 107.13,43.28 "></polygon>
		</defs>
		<use xlink:href="#SVGID_9_" style="overflow:visible;fill:#f05764" id="use55" x="0" y="0" width="100%" height="100%"></use>
		<clipPath id="SVGID_10_">
			<use xlink:href="#SVGID_9_" style="overflow:visible" id="use57" x="0" y="0" width="100%" height="100%"></use>
		</clipPath>
		<polygon class="st4" points="108.15,45.98 104.29,46.21 103.84,41.19 107.7,40.96 " clip-path="url(#SVGID_10_)" id="polygon60"></polygon>
	</g>
	<g id="g74">
		<defs id="defs65">
			<rect id="SVGID_11_" x="113.03" y="41.169998" width="0.58999997" height="4.8400002"></rect>
		</defs>
		<use xlink:href="#SVGID_11_" style="overflow:visible;fill:#f05764" id="use67" x="0" y="0" width="100%" height="100%"></use>
		<clipPath id="SVGID_12_">
			<use xlink:href="#SVGID_11_" style="overflow:visible" id="use69" x="0" y="0" width="100%" height="100%"></use>
		</clipPath>
		<polygon class="st5" points="114.05,45.98 113.03,46.04 112.6,41.19 113.62,41.13 " clip-path="url(#SVGID_12_)" id="polygon72"></polygon>
	</g>
	<g id="g86">
		<defs id="defs77">
			<path id="SVGID_13_" d="m 119.85,41.24 c -0.25,0.13 -0.47,0.3 -0.64,0.53 -0.18,0.23 -0.31,0.49 -0.4,0.8 -0.09,0.31 -0.14,0.65 -0.14,1.01 0,0.36 0.05,0.69 0.14,1 0.09,0.31 0.23,0.58 0.4,0.8 0.17,0.23 0.39,0.4 0.64,0.53 0.25,0.13 0.54,0.19 0.86,0.19 0.3,0 0.57,-0.06 0.82,-0.17 0.24,-0.11 0.44,-0.28 0.6,-0.49 l -0.37,-0.31 c -0.11,0.16 -0.25,0.29 -0.43,0.39 -0.17,0.1 -0.37,0.15 -0.58,0.15 -0.25,0 -0.46,-0.06 -0.64,-0.17 -0.18,-0.11 -0.33,-0.26 -0.45,-0.45 -0.12,-0.19 -0.21,-0.41 -0.27,-0.67 -0.06,-0.25 -0.09,-0.52 -0.09,-0.81 0,-0.29 0.03,-0.56 0.09,-0.81 0.06,-0.26 0.15,-0.48 0.27,-0.67 0.12,-0.19 0.27,-0.34 0.45,-0.45 0.18,-0.11 0.4,-0.16 0.64,-0.16 0.19,0 0.37,0.04 0.54,0.12 0.17,0.08 0.32,0.2 0.45,0.36 l 0.38,-0.31 c -0.16,-0.2 -0.37,-0.36 -0.61,-0.45 -0.24,-0.09 -0.51,-0.14 -0.79,-0.14 -0.33,-0.01 -0.62,0.05 -0.87,0.18"></path>
		</defs>
		<use xlink:href="#SVGID_13_" style="overflow:visible;fill:#f05764" id="use79" x="0" y="0" width="100%" height="100%"></use>
		<clipPath id="SVGID_14_">
			<use xlink:href="#SVGID_13_" style="overflow:visible" id="use81" x="0" y="0" width="100%" height="100%"></use>
		</clipPath>
		<polygon class="st6" points="122.57,46.1 118.68,46.33 118.22,41.08 122.1,40.85 " clip-path="url(#SVGID_14_)" id="polygon84"></polygon>
	</g>
	<g id="g98">
		<defs id="defs89">
			<path id="SVGID_15_" d="m 127.63,41.13 c -0.18,0.05 -0.34,0.14 -0.48,0.25 -0.14,0.11 -0.26,0.25 -0.34,0.42 -0.08,0.17 -0.13,0.36 -0.13,0.58 0,0.19 0.03,0.36 0.1,0.5 0.07,0.14 0.16,0.27 0.26,0.37 0.11,0.11 0.24,0.2 0.38,0.28 0.15,0.08 0.3,0.15 0.46,0.22 0.13,0.05 0.26,0.11 0.38,0.18 0.12,0.06 0.23,0.14 0.32,0.22 0.1,0.08 0.17,0.18 0.23,0.28 0.06,0.11 0.08,0.23 0.08,0.36 0,0.29 -0.09,0.51 -0.27,0.66 -0.18,0.16 -0.41,0.23 -0.68,0.23 -0.2,0 -0.4,-0.04 -0.6,-0.12 -0.2,-0.08 -0.36,-0.2 -0.49,-0.35 l -0.36,0.34 c 0.16,0.17 0.36,0.31 0.62,0.42 0.26,0.11 0.53,0.16 0.84,0.16 0.21,0 0.4,-0.03 0.59,-0.09 0.19,-0.06 0.35,-0.15 0.48,-0.27 0.14,-0.12 0.25,-0.26 0.32,-0.42 0.08,-0.17 0.12,-0.36 0.12,-0.57 0,-0.2 -0.04,-0.37 -0.11,-0.51 -0.07,-0.15 -0.17,-0.27 -0.29,-0.38 -0.12,-0.11 -0.26,-0.21 -0.42,-0.29 -0.15,-0.08 -0.31,-0.16 -0.47,-0.22 -0.12,-0.05 -0.24,-0.1 -0.36,-0.16 -0.11,-0.06 -0.22,-0.13 -0.3,-0.2 -0.09,-0.08 -0.16,-0.17 -0.21,-0.27 -0.05,-0.1 -0.08,-0.22 -0.08,-0.36 0,-0.15 0.03,-0.29 0.08,-0.4 0.06,-0.11 0.13,-0.21 0.22,-0.28 0.09,-0.07 0.19,-0.13 0.31,-0.16 0.12,-0.03 0.23,-0.05 0.35,-0.05 0.18,0 0.34,0.03 0.5,0.09 0.15,0.06 0.28,0.15 0.39,0.28 l 0.36,-0.33 c -0.15,-0.16 -0.33,-0.28 -0.54,-0.35 -0.22,-0.08 -0.46,-0.11 -0.73,-0.11 -0.17,-0.03 -0.35,0 -0.53,0.05"></path>
		</defs>
		<use xlink:href="#SVGID_15_" style="overflow:visible;fill:#f05764" id="use91" x="0" y="0" width="100%" height="100%"></use>
		<clipPath id="SVGID_16_">
			<use xlink:href="#SVGID_15_" style="overflow:visible" id="use93" x="0" y="0" width="100%" height="100%"></use>
		</clipPath>
		<polygon class="st7" points="129.93,46.1 126.53,46.3 126.06,41.08 129.46,40.87 " clip-path="url(#SVGID_16_)" id="polygon96"></polygon>
	</g>
	<g id="g110">
		<defs id="defs101">
			<path id="SVGID_17_" d="m 140.72,41.13 c -0.18,0.05 -0.34,0.14 -0.48,0.25 -0.14,0.11 -0.26,0.25 -0.34,0.42 -0.08,0.17 -0.13,0.36 -0.13,0.58 0,0.19 0.03,0.36 0.1,0.5 0.07,0.14 0.16,0.27 0.26,0.37 0.11,0.11 0.24,0.2 0.38,0.28 0.15,0.08 0.3,0.15 0.46,0.22 0.13,0.05 0.26,0.11 0.38,0.18 0.12,0.06 0.23,0.14 0.32,0.22 0.1,0.08 0.17,0.18 0.23,0.28 0.06,0.11 0.08,0.23 0.08,0.36 0,0.29 -0.09,0.51 -0.27,0.66 -0.18,0.16 -0.41,0.23 -0.68,0.23 -0.2,0 -0.4,-0.04 -0.6,-0.12 -0.2,-0.08 -0.36,-0.2 -0.49,-0.35 l -0.36,0.34 c 0.16,0.17 0.36,0.31 0.62,0.42 0.25,0.11 0.53,0.16 0.84,0.16 0.21,0 0.4,-0.03 0.59,-0.09 0.19,-0.06 0.35,-0.15 0.48,-0.27 0.14,-0.12 0.25,-0.26 0.32,-0.42 0.08,-0.17 0.12,-0.36 0.12,-0.57 0,-0.2 -0.04,-0.37 -0.11,-0.51 -0.07,-0.15 -0.17,-0.27 -0.29,-0.38 -0.12,-0.11 -0.26,-0.21 -0.42,-0.29 -0.15,-0.08 -0.31,-0.16 -0.47,-0.22 -0.12,-0.05 -0.24,-0.1 -0.36,-0.16 -0.11,-0.06 -0.22,-0.13 -0.3,-0.2 -0.09,-0.08 -0.16,-0.17 -0.21,-0.27 -0.05,-0.1 -0.08,-0.22 -0.08,-0.36 0,-0.15 0.03,-0.29 0.08,-0.4 0.06,-0.11 0.13,-0.21 0.22,-0.28 0.09,-0.07 0.19,-0.13 0.31,-0.16 0.11,-0.03 0.23,-0.05 0.35,-0.05 0.18,0 0.34,0.03 0.5,0.09 0.15,0.06 0.28,0.15 0.39,0.28 l 0.36,-0.33 c -0.15,-0.16 -0.33,-0.28 -0.54,-0.35 -0.22,-0.08 -0.46,-0.11 -0.73,-0.11 -0.16,-0.03 -0.35,0 -0.53,0.05"></path>
		</defs>
		<use xlink:href="#SVGID_17_" style="overflow:visible;fill:#f05764" id="use103" x="0" y="0" width="100%" height="100%"></use>
		<clipPath id="SVGID_18_">
			<use xlink:href="#SVGID_17_" style="overflow:visible" id="use105" x="0" y="0" width="100%" height="100%"></use>
		</clipPath>
		<polygon class="st8" points="143.02,46.1 139.62,46.3 139.15,41.08 142.55,40.87 " clip-path="url(#SVGID_18_)" id="polygon108"></polygon>
	</g>
	<g id="g122">
		<defs id="defs113">
			<path id="SVGID_19_" d="m 148.7,45.52 c -0.17,-0.11 -0.31,-0.26 -0.42,-0.45 -0.11,-0.19 -0.2,-0.41 -0.25,-0.67 -0.06,-0.26 -0.08,-0.53 -0.08,-0.82 0,-0.29 0.03,-0.57 0.08,-0.82 0.06,-0.25 0.14,-0.48 0.25,-0.66 0.11,-0.19 0.25,-0.33 0.42,-0.44 0.17,-0.11 0.37,-0.16 0.6,-0.16 0.22,0 0.41,0.05 0.58,0.16 0.17,0.11 0.31,0.26 0.42,0.44 0.11,0.19 0.2,0.41 0.26,0.66 0.06,0.26 0.08,0.53 0.08,0.82 0,0.29 -0.03,0.57 -0.08,0.82 -0.06,0.26 -0.14,0.48 -0.25,0.67 -0.11,0.19 -0.25,0.34 -0.42,0.45 -0.17,0.11 -0.36,0.16 -0.59,0.16 -0.22,0 -0.42,-0.05 -0.6,-0.16 m -0.24,-4.29 c -0.24,0.12 -0.45,0.3 -0.62,0.52 -0.17,0.22 -0.3,0.49 -0.38,0.8 -0.09,0.31 -0.13,0.66 -0.13,1.03 0,0.38 0.04,0.72 0.13,1.04 0.09,0.31 0.22,0.58 0.39,0.8 0.17,0.22 0.38,0.4 0.62,0.52 0.24,0.12 0.52,0.18 0.83,0.18 0.31,0 0.58,-0.06 0.82,-0.18 0.24,-0.12 0.44,-0.3 0.61,-0.52 0.17,-0.22 0.3,-0.49 0.39,-0.8 0.09,-0.31 0.13,-0.66 0.13,-1.04 0,-0.37 -0.04,-0.72 -0.13,-1.03 -0.09,-0.31 -0.22,-0.58 -0.39,-0.8 -0.17,-0.22 -0.37,-0.39 -0.61,-0.52 -0.24,-0.12 -0.52,-0.18 -0.82,-0.18 -0.31,0 -0.6,0.06 -0.84,0.18"></path>
		</defs>
		<use xlink:href="#SVGID_19_" style="overflow:visible;fill:#f05764" id="use115" x="0" y="0" width="100%" height="100%"></use>
		<clipPath id="SVGID_20_">
			<use xlink:href="#SVGID_19_" style="overflow:visible" id="use117" x="0" y="0" width="100%" height="100%"></use>
		</clipPath>
		<polygon class="st9" points="151.71,46.1 147.35,46.35 146.88,41.08 151.24,40.82 " clip-path="url(#SVGID_20_)" id="polygon120"></polygon>
	</g>
	<g id="g134">
		<defs id="defs125">
			<polygon id="SVGID_21_" points="158.6,46.01 158.6,45.56 156.91,45.56 156.91,41.17 156.32,41.17 156.32,46.01 "></polygon>
		</defs>
		<use xlink:href="#SVGID_21_" style="overflow:visible;fill:#f05764" id="use127" x="0" y="0" width="100%" height="100%"></use>
		<clipPath id="SVGID_22_">
			<use xlink:href="#SVGID_21_" style="overflow:visible" id="use129" x="0" y="0" width="100%" height="100%"></use>
		</clipPath>
		<polygon class="st10" points="159.03,45.98 156.33,46.14 155.89,41.19 158.59,41.03 " clip-path="url(#SVGID_22_)" id="polygon132"></polygon>
	</g>
	<g id="g146">
		<defs id="defs137">
			<path id="SVGID_23_" d="m 165.8,41.17 v 3.08 c 0,0.18 -0.02,0.36 -0.05,0.53 -0.03,0.17 -0.09,0.32 -0.17,0.46 -0.08,0.13 -0.19,0.24 -0.34,0.33 -0.15,0.08 -0.33,0.12 -0.55,0.12 -0.23,0 -0.42,-0.04 -0.56,-0.12 -0.14,-0.08 -0.26,-0.19 -0.34,-0.33 -0.08,-0.13 -0.14,-0.29 -0.17,-0.46 -0.03,-0.17 -0.05,-0.35 -0.05,-0.53 V 41.17 H 163 v 3.15 c 0,0.25 0.03,0.49 0.08,0.71 0.06,0.22 0.15,0.41 0.28,0.58 0.13,0.16 0.31,0.29 0.52,0.39 0.22,0.09 0.48,0.14 0.8,0.14 0.32,0 0.59,-0.05 0.81,-0.14 0.22,-0.09 0.39,-0.22 0.52,-0.39 0.13,-0.16 0.23,-0.36 0.29,-0.58 0.06,-0.22 0.09,-0.46 0.09,-0.71 v -3.15 z"></path>
		</defs>
		<use xlink:href="#SVGID_23_" style="overflow:visible;fill:#f05764" id="use139" x="0" y="0" width="100%" height="100%"></use>
		<clipPath id="SVGID_24_">
			<use xlink:href="#SVGID_23_" style="overflow:visible" id="use141" x="0" y="0" width="100%" height="100%"></use>
		</clipPath>
		<polygon class="st11" points="166.83,46.1 163.01,46.32 162.56,41.19 166.37,40.97 " clip-path="url(#SVGID_24_)" id="polygon144"></polygon>
	</g>
	<g id="g158">
		<defs id="defs149">
			<polygon id="SVGID_25_" points="172.09,41.58 172.09,46.01 172.67,46.01 172.67,41.58 173.82,41.58 173.82,41.17 170.95,41.17 170.95,41.58 "></polygon>
		</defs>
		<use xlink:href="#SVGID_25_" style="overflow:visible;fill:#f05764" id="use151" x="0" y="0" width="100%" height="100%"></use>
		<clipPath id="SVGID_26_">
			<use xlink:href="#SVGID_25_" style="overflow:visible" id="use153" x="0" y="0" width="100%" height="100%"></use>
		</clipPath>
		<polygon class="st12" points="174.25,45.98 170.96,46.17 170.52,41.19 173.81,41 " clip-path="url(#SVGID_26_)" id="polygon156"></polygon>
	</g>
	<g id="g170">
		<defs id="defs161">
			<rect id="SVGID_27_" x="178.45" y="41.169998" width="0.58999997" height="4.8400002"></rect>
		</defs>
		<use xlink:href="#SVGID_27_" style="overflow:visible;fill:#f05764" id="use163" x="0" y="0" width="100%" height="100%"></use>
		<clipPath id="SVGID_28_">
			<use xlink:href="#SVGID_27_" style="overflow:visible" id="use165" x="0" y="0" width="100%" height="100%"></use>
		</clipPath>
		<polygon class="st13" points="179.47,45.98 178.45,46.04 178.02,41.19 179.03,41.13 " clip-path="url(#SVGID_28_)" id="polygon168"></polygon>
	</g>
	<g id="g182">
		<defs id="defs173">
			<path id="SVGID_29_" d="m 185.47,45.52 c -0.17,-0.11 -0.31,-0.26 -0.42,-0.45 -0.11,-0.19 -0.2,-0.41 -0.25,-0.67 -0.06,-0.26 -0.08,-0.53 -0.08,-0.82 0,-0.29 0.03,-0.57 0.08,-0.82 0.06,-0.25 0.14,-0.48 0.25,-0.66 0.11,-0.19 0.25,-0.33 0.42,-0.44 0.17,-0.11 0.37,-0.16 0.6,-0.16 0.22,0 0.41,0.05 0.58,0.16 0.17,0.11 0.31,0.26 0.42,0.44 0.11,0.19 0.2,0.41 0.26,0.66 0.06,0.26 0.08,0.53 0.08,0.82 0,0.29 -0.03,0.57 -0.08,0.82 -0.06,0.26 -0.14,0.48 -0.25,0.67 -0.11,0.19 -0.25,0.34 -0.42,0.45 -0.17,0.11 -0.36,0.16 -0.59,0.16 -0.23,0 -0.43,-0.05 -0.6,-0.16 m -0.25,-4.29 c -0.24,0.12 -0.45,0.3 -0.62,0.52 -0.17,0.22 -0.3,0.49 -0.38,0.8 -0.09,0.31 -0.13,0.66 -0.13,1.03 0,0.38 0.04,0.72 0.13,1.04 0.09,0.31 0.22,0.58 0.39,0.8 0.17,0.22 0.38,0.4 0.62,0.52 0.24,0.12 0.52,0.18 0.83,0.18 0.31,0 0.58,-0.06 0.82,-0.18 0.24,-0.12 0.44,-0.3 0.61,-0.52 0.17,-0.22 0.3,-0.49 0.39,-0.8 0.09,-0.31 0.13,-0.66 0.13,-1.04 0,-0.37 -0.05,-0.72 -0.13,-1.03 -0.09,-0.31 -0.22,-0.58 -0.39,-0.8 -0.17,-0.22 -0.37,-0.39 -0.61,-0.52 -0.24,-0.12 -0.52,-0.18 -0.82,-0.18 -0.31,0 -0.59,0.06 -0.84,0.18"></path>
		</defs>
		<use xlink:href="#SVGID_29_" style="overflow:visible;fill:#f05764" id="use175" x="0" y="0" width="100%" height="100%"></use>
		<clipPath id="SVGID_30_">
			<use xlink:href="#SVGID_29_" style="overflow:visible" id="use177" x="0" y="0" width="100%" height="100%"></use>
		</clipPath>
		<polygon class="st14" points="188.47,46.1 184.11,46.35 183.64,41.08 188,40.82 " clip-path="url(#SVGID_30_)" id="polygon180"></polygon>
	</g>
	<g id="g194">
		<defs id="defs185">
			<polygon id="SVGID_31_" points="195.87,45.19 193.81,41.17 193.08,41.17 193.08,46.01 193.63,46.01 193.63,41.98 193.66,41.98 195.73,46.01 196.43,46.01 196.43,41.17 195.89,41.17 195.89,45.19 "></polygon>
		</defs>
		<use xlink:href="#SVGID_31_" style="overflow:visible;fill:#f05764" id="use187" x="0" y="0" width="100%" height="100%"></use>
		<clipPath id="SVGID_32_">
			<use xlink:href="#SVGID_31_" style="overflow:visible" id="use189" x="0" y="0" width="100%" height="100%"></use>
		</clipPath>
		<polygon class="st15" points="196.86,45.98 193.1,46.2 192.65,41.19 196.41,40.97 " clip-path="url(#SVGID_32_)" id="polygon192"></polygon>
	</g>
	<g id="g206">
		<defs id="defs197">
			<path id="SVGID_33_" d="m 202.47,41.13 c -0.18,0.05 -0.34,0.14 -0.48,0.25 -0.14,0.11 -0.26,0.25 -0.34,0.42 -0.08,0.17 -0.13,0.36 -0.13,0.58 0,0.19 0.03,0.36 0.1,0.5 0.07,0.14 0.16,0.27 0.27,0.37 0.11,0.11 0.24,0.2 0.38,0.28 0.15,0.08 0.3,0.15 0.46,0.22 0.13,0.05 0.26,0.11 0.38,0.18 0.12,0.06 0.23,0.14 0.32,0.22 0.1,0.08 0.17,0.18 0.23,0.28 0.06,0.11 0.08,0.23 0.08,0.36 0,0.29 -0.09,0.51 -0.27,0.66 -0.18,0.16 -0.41,0.23 -0.68,0.23 -0.2,0 -0.4,-0.04 -0.6,-0.12 -0.2,-0.08 -0.36,-0.2 -0.49,-0.35 l -0.36,0.34 c 0.16,0.17 0.36,0.31 0.62,0.42 0.26,0.11 0.53,0.16 0.84,0.16 0.21,0 0.4,-0.03 0.59,-0.09 0.19,-0.06 0.35,-0.15 0.48,-0.27 0.14,-0.12 0.25,-0.26 0.32,-0.42 0.08,-0.17 0.12,-0.36 0.12,-0.57 0,-0.2 -0.04,-0.37 -0.11,-0.51 -0.07,-0.15 -0.17,-0.27 -0.29,-0.38 -0.12,-0.11 -0.26,-0.21 -0.42,-0.29 -0.15,-0.08 -0.31,-0.16 -0.47,-0.22 -0.12,-0.05 -0.24,-0.1 -0.36,-0.16 -0.11,-0.06 -0.22,-0.13 -0.3,-0.2 -0.09,-0.08 -0.16,-0.17 -0.21,-0.27 -0.05,-0.1 -0.08,-0.22 -0.08,-0.36 0,-0.15 0.03,-0.29 0.08,-0.4 0.06,-0.11 0.13,-0.21 0.22,-0.28 0.09,-0.07 0.19,-0.13 0.31,-0.16 0.11,-0.03 0.23,-0.05 0.35,-0.05 0.18,0 0.34,0.03 0.5,0.09 0.15,0.06 0.28,0.15 0.39,0.28 l 0.36,-0.33 c -0.15,-0.16 -0.33,-0.28 -0.54,-0.35 -0.22,-0.08 -0.46,-0.11 -0.73,-0.11 -0.17,-0.03 -0.36,0 -0.54,0.05"></path>
		</defs>
		<use xlink:href="#SVGID_33_" style="overflow:visible;fill:#f05764" id="use199" x="0" y="0" width="100%" height="100%"></use>
		<clipPath id="SVGID_34_">
			<use xlink:href="#SVGID_33_" style="overflow:visible" id="use201" x="0" y="0" width="100%" height="100%"></use>
		</clipPath>
		<polygon class="st16" points="204.77,46.1 201.37,46.3 200.9,41.08 204.3,40.87 " clip-path="url(#SVGID_34_)" id="polygon204"></polygon>
	</g>
	<g id="g218">
		<defs id="defs209">
			<path id="SVGID_35_" d="M 62.82,46.01 V 5.9 Z"></path>
		</defs>
		<use xlink:href="#SVGID_35_" style="overflow:visible;fill:#f05764" id="use211" x="0" y="0" width="100%" height="100%"></use>
		<clipPath id="SVGID_36_">
			<use xlink:href="#SVGID_35_" style="overflow:visible" id="use213" x="0" y="0" width="100%" height="100%"></use>
		</clipPath>
		<polygon class="st17" points="66.37,45.8 62.82,46.01 59.26,6.11 62.82,5.9 " clip-path="url(#SVGID_36_)" id="polygon216"></polygon>
	</g>
	<g id="g230">
		<defs id="defs221">
			<rect id="SVGID_37_" x="62.610001" y="5.9000001" width="0.52999997" height="40.110001"></rect>
		</defs>
		<use xlink:href="#SVGID_37_" style="overflow:visible;fill:#f05764" id="use223" x="0" y="0" width="100%" height="100%"></use>
		<clipPath id="SVGID_38_">
			<use xlink:href="#SVGID_37_" style="overflow:visible" id="use225" x="0" y="0" width="100%" height="100%"></use>
		</clipPath>
		<polygon class="st18" points="66.7,45.8 62.61,46.04 59.05,6.11 63.14,5.86 " clip-path="url(#SVGID_38_)" id="polygon228"></polygon>
	</g>
	<g id="g242">
		<defs id="defs233">
			<path id="SVGID_39_" d="M 4.56,25.93 28.88,6.14 53.2,25.93 28.88,45.72 Z m -0.59,0 L 28.87,46.2 53.77,25.93 28.88,5.66 Z"></path>
		</defs>
		<use xlink:href="#SVGID_39_" style="overflow:visible;fill:#f05764" id="use235" x="0" y="0" width="100%" height="100%"></use>
		<clipPath id="SVGID_40_">
			<use xlink:href="#SVGID_39_" style="overflow:visible" id="use237" x="0" y="0" width="100%" height="100%"></use>
		</clipPath>
		<polygon class="st19" points="57.38,45.99 4.23,49.13 0.38,5.87 53.52,2.73 " clip-path="url(#SVGID_40_)" id="polygon240"></polygon>
	</g>
	<g id="g254">
		<defs id="defs245">
			<path id="SVGID_41_" d="m 38.58,15.92 c 0,0.15 0,0.3 0,0.45 0,0.26 0.01,0.51 0,0.77 -0.01,0.14 0,0.28 0.01,0.42 0.01,0.14 0.01,0.29 0.01,0.43 -0.03,0.64 -0.29,1.1 -0.77,1.38 -0.52,0.3 -1.15,0.42 -1.69,0.31 -0.43,-0.09 -0.83,-0.27 -1.17,-0.44 -0.26,-0.13 -0.53,-0.26 -0.79,-0.4 -0.96,-0.49 -1.94,-1 -3.06,-1.27 -0.78,-0.19 -1.63,-0.27 -2.62,-0.26 -6.27,0.06 -12.26,3.46 -14.55,8.28 -1.09,2.29 -1.64,4.74 -1.58,7.09 v 0.07 l 8.1,6.6 -0.07,-0.49 c -0.41,-2.79 -0.61,-4.94 -0.64,-6.97 -0.04,-3.16 0.24,-6.73 2.63,-9.3 2.25,-2.42 6.99,-4.06 10.71,-2.5 2.33,0.98 4.18,2.76 5.06,4.89 0.33,0.8 0.35,1.67 0.36,2.52 0,0.18 0.01,0.37 0.01,0.55 0.04,0.98 0.05,2.05 0.06,3.29 0,1.15 -0.01,2.3 -0.02,3.45 -0.01,1.04 -0.02,2.09 -0.02,3.13 v 0.41 l 7.28,-5.92 V 19.45 l -7.24,-5.89 z"></path>
		</defs>
		<use xlink:href="#SVGID_41_" style="overflow:visible;fill:#f05764" id="use247" x="0" y="0" width="100%" height="100%"></use>
		<clipPath id="SVGID_42_">
			<use xlink:href="#SVGID_41_" style="overflow:visible" id="use249" x="0" y="0" width="100%" height="100%"></use>
		</clipPath>
		<polygon class="st20" points="48.1,39.22 12.48,41.32 10.01,13.69 45.64,11.59 " clip-path="url(#SVGID_42_)" id="polygon252"></polygon>
	</g>
	<g id="g266">
		<defs id="defs257">
			<path id="SVGID_43_" d="m 77.4,10.33 h 2.77 c 1.73,0 2.77,0.79 2.77,2.98 v 15.94 c 0,2.19 -1.04,2.98 -2.77,2.98 H 77.4 Z M 71.97,5.95 v 30.66 h 8.3 c 5.43,0 8.1,-2.67 8.1,-7.58 v -15.5 c 0,-4.9 -2.67,-7.58 -8.1,-7.58 z"></path>
		</defs>
		<use xlink:href="#SVGID_43_" style="overflow:visible;fill:#f05764" id="use259" x="0" y="0" width="100%" height="100%"></use>
		<clipPath id="SVGID_44_">
			<use xlink:href="#SVGID_43_" style="overflow:visible" id="use261" x="0" y="0" width="100%" height="100%"></use>
		</clipPath>
		<polygon class="st21" points="91.08,36.45 72.05,37.57 69.25,6.11 88.28,4.99 " clip-path="url(#SVGID_44_)" id="polygon264"></polygon>
	</g>
	<g id="g278">
		<defs id="defs269">
			<rect id="SVGID_45_" x="93.5" y="5.9499998" width="5.4299998" height="30.66"></rect>
		</defs>
		<use xlink:href="#SVGID_45_" style="overflow:visible;fill:#f05764" id="use271" x="0" y="0" width="100%" height="100%"></use>
		<clipPath id="SVGID_46_">
			<use xlink:href="#SVGID_45_" style="overflow:visible" id="use273" x="0" y="0" width="100%" height="100%"></use>
		</clipPath>
		<polygon class="st22" points="101.65,36.45 93.53,36.93 90.78,6.11 98.9,5.63 " clip-path="url(#SVGID_46_)" id="polygon276"></polygon>
	</g>
	<g id="g290">
		<defs id="defs281">
			<path id="SVGID_47_" d="m 104.07,13.22 v 16.12 c 0,4.9 2.77,7.71 8.1,7.71 5.33,0 8.1,-2.8 8.1,-7.71 V 19.31 h -7.85 v 4.38 h 2.72 v 6 c 0,2.19 -1.09,2.98 -2.81,2.98 -1.73,0 -2.81,-0.79 -2.81,-2.98 V 12.91 c 0,-2.19 1.09,-3.02 2.81,-3.02 1.73,0 2.81,0.83 2.81,3.02 v 2.93 h 5.14 v -2.63 c 0,-4.91 -2.77,-7.71 -8.1,-7.71 -5.35,0.01 -8.11,2.81 -8.11,7.72"></path>
		</defs>
		<use xlink:href="#SVGID_47_" style="overflow:visible;fill:#f05764" id="use283" x="0" y="0" width="100%" height="100%"></use>
		<clipPath id="SVGID_48_">
			<use xlink:href="#SVGID_47_" style="overflow:visible" id="use285" x="0" y="0" width="100%" height="100%"></use>
		</clipPath>
		<polygon class="st23" points="123.06,36.88 104.15,38 101.27,5.68 120.18,4.56 " clip-path="url(#SVGID_48_)" id="polygon288"></polygon>
	</g>
	<g id="g302">
		<defs id="defs293">
			<rect id="SVGID_49_" x="125.4" y="5.9499998" width="5.4299998" height="30.66"></rect>
		</defs>
		<use xlink:href="#SVGID_49_" style="overflow:visible;fill:#f05764" id="use295" x="0" y="0" width="100%" height="100%"></use>
		<clipPath id="SVGID_50_">
			<use xlink:href="#SVGID_49_" style="overflow:visible" id="use297" x="0" y="0" width="100%" height="100%"></use>
		</clipPath>
		<polygon class="st24" points="133.55,36.45 125.43,36.93 122.68,6.11 130.81,5.63 " clip-path="url(#SVGID_50_)" id="polygon300"></polygon>
	</g>
	<g id="g314">
		<defs id="defs305">
			<polygon id="SVGID_51_" points="141.65,10.33 141.65,36.61 147.08,36.61 147.08,10.33 152.76,10.33 152.76,5.95 135.97,5.95 135.97,10.33 "></polygon>
		</defs>
		<use xlink:href="#SVGID_51_" style="overflow:visible;fill:#f05764" id="use307" x="0" y="0" width="100%" height="100%"></use>
		<clipPath id="SVGID_52_">
			<use xlink:href="#SVGID_51_" style="overflow:visible" id="use309" x="0" y="0" width="100%" height="100%"></use>
		</clipPath>
		<polygon class="st25" points="155.48,36.45 136.06,37.59 133.25,6.11 152.67,4.96 " clip-path="url(#SVGID_52_)" id="polygon312"></polygon>
	</g>
	<g id="g326">
		<defs id="defs317">
			<rect id="SVGID_53_" x="157.89999" y="5.9499998" width="5.4299998" height="30.66"></rect>
		</defs>
		<use xlink:href="#SVGID_53_" style="overflow:visible;fill:#f05764" id="use319" x="0" y="0" width="100%" height="100%"></use>
		<clipPath id="SVGID_54_">
			<use xlink:href="#SVGID_53_" style="overflow:visible" id="use321" x="0" y="0" width="100%" height="100%"></use>
		</clipPath>
		<polygon class="st26" points="166.05,36.45 157.93,36.93 155.18,6.11 163.3,5.63 " clip-path="url(#SVGID_54_)" id="polygon324"></polygon>
	</g>
	<g id="g338">
		<defs id="defs329">
			<polygon id="SVGID_55_" points="178.54,10.33 168.47,32.32 168.47,36.61 184.37,36.61 184.37,32.23 174.29,32.23 184.37,10.24 184.37,5.95 168.96,5.95 168.96,10.33 "></polygon>
		</defs>
		<use xlink:href="#SVGID_55_" style="overflow:visible;fill:#f05764" id="use331" x="0" y="0" width="100%" height="100%"></use>
		<clipPath id="SVGID_56_">
			<use xlink:href="#SVGID_55_" style="overflow:visible" id="use333" x="0" y="0" width="100%" height="100%"></use>
		</clipPath>
		<polygon class="st27" points="187.08,36.45 168.55,37.54 165.75,6.11 184.28,5.02 " clip-path="url(#SVGID_56_)" id="polygon336"></polygon>
	</g>
	<g id="g350">
		<defs id="defs341">
			<polygon id="SVGID_57_" points="204.32,36.61 204.32,32.23 194.94,32.23 194.94,22.81 202.39,22.81 202.39,18.43 194.94,18.43 194.94,10.33 204.32,10.33 204.32,5.95 189.5,5.95 189.5,36.61 "></polygon>
		</defs>
		<use xlink:href="#SVGID_57_" style="overflow:visible;fill:#f05764" id="use343" x="0" y="0" width="100%" height="100%"></use>
		<clipPath id="SVGID_58_">
			<use xlink:href="#SVGID_57_" style="overflow:visible" id="use345" x="0" y="0" width="100%" height="100%"></use>
		</clipPath>
		<polygon class="st28" points="207.04,36.45 189.58,37.48 186.79,6.11 204.24,5.08 " clip-path="url(#SVGID_58_)" id="polygon348"></polygon>
	</g>
</g>
</svg>
